<svg xmlns="http://www.w3.org/2000/svg" xmlns:xlink="http://www.w3.org/1999/xlink" width="380" height="154" viewBox="0 0 380 154"><defs><filter id="a" x="180" y="11" width="200" height="143" filterUnits="userSpaceOnUse"><feOffset dy="3" input="SourceAlpha"/><feGaussianBlur stdDeviation="22.5" result="b"/><feFlood flood-opacity="0.529"/><feComposite operator="in" in2="b"/><feComposite in="SourceGraphic"/></filter><filter id="c" x="92" y="11" width="190" height="143" filterUnits="userSpaceOnUse"><feOffset dy="3" input="SourceAlpha"/><feGaussianBlur stdDeviation="22.5" result="d"/><feFlood flood-opacity="0.529"/><feComposite operator="in" in2="d"/><feComposite in="SourceGraphic"/></filter><filter id="e" x="0" y="10" width="198" height="143" filterUnits="userSpaceOnUse"><feOffset dy="3" input="SourceAlpha"/><feGaussianBlur stdDeviation="22.5" result="f"/><feFlood flood-opacity="0.529"/><feComposite operator="in" in2="f"/><feComposite in="SourceGraphic"/></filter><filter id="g" x="5" y="0" width="370" height="146" filterUnits="userSpaceOnUse"><feOffset dy="3" input="SourceAlpha"/><feGaussianBlur stdDeviation="22.5" result="h"/><feFlood flood-opacity="0.529"/><feComposite operator="in" in2="h"/><feComposite in="SourceGraphic"/></filter></defs><g transform="translate(68.5 64.5)"><circle cx="2" cy="2" r="2" transform="translate(161 13)" fill="#750245" opacity="0.54"/><circle cx="2" cy="2" r="2" transform="translate(72 13)" fill="#750245" opacity="0.54"/><g transform="matrix(1, 0, 0, 1, -68.5, -64.5)" filter="url(#a)"><text transform="translate(248.5 81.5)" font-size="5" font-family="PermanentMarker-Regular, Permanent Marker" letter-spacing="0.675em" text-decoration="underline"><tspan x="0" y="0">CUSTOMIZED</tspan></text></g><g transform="matrix(1, 0, 0, 1, -68.5, -64.5)" filter="url(#c)"><text transform="translate(159.5 81.5)" font-size="5" font-family="PermanentMarker-Regular, Permanent Marker" letter-spacing="0.679em" text-decoration="underline"><tspan x="0" y="0" xml:space="preserve">RELIABLE </tspan></text></g><g transform="matrix(1, 0, 0, 1, -68.5, -64.5)" filter="url(#e)"><text transform="translate(68.5 80.5)" font-size="5" font-family="PermanentMarker-Regular, Permanent Marker" letter-spacing="0.675em" text-decoration="underline"><tspan x="0" y="0" xml:space="preserve">Convenient </tspan></text></g><g transform="matrix(1, 0, 0, 1, -68.5, -64.5)" filter="url(#g)"><text transform="translate(72.5 73.5)" font-size="9" font-family="Typeka-Regular, Typeka" letter-spacing="0.292em"><tspan x="0" y="0">ASHLYNCURRIE@ASHLYNSAUDIO.COM</tspan></text></g></g></svg>